<svg width="20" height="21" viewBox="0 0 20 21" fill="none" xmlns="http://www.w3.org/2000/svg">
<path id="Vector" d="M0 0.599609C21.3214 0.599609 16.3661 14.7648 16.3884 16.9523L20 20.5996H18.8393L15.6964 17.421C13.9554 17.6085 10.1429 18.9612 6.125 15.7693C2.09821 12.5773 2.32143 8.75586 0 0.599609ZM3.55804 2.65318C1.33929 1.60407 3.32589 3.06389 3.32589 3.06389C5.34375 4.45675 6.27232 6.35407 7.35268 8.41657C8.75893 11.1041 10.8795 14.6532 13.7902 15.9032C16.692 17.1532 15.317 16.4612 14.058 15.5237C12.7991 14.5773 11.0134 11.6398 9.99553 9.71122C8.58036 7.03265 7.27232 4.41657 3.55804 2.65318Z" fill="#5E8E56"/>
</svg>
