<svg width="23" height="30" viewBox="0 0 23 30" fill="none" xmlns="http://www.w3.org/2000/svg">
<g id="pagelines 1">
<g clip-path="url(#clip0_48_54)">
<path id="Vector" d="M22.7498 18.3223C19.5213 26.332 11.7869 21.4863 11.7869 21.4863C9.41386 26.2793 5.49394 29.3613 0.970501 29.3789C0.0271416 29.3789 -0.00215527 27.9492 0.970501 27.9492C4.74394 27.9316 8.03105 25.4473 10.1814 21.498C7.77324 22.4297 3.23222 23.1328 0.712688 16.6816C7.09941 14.0508 10.035 17.3379 11.16 19.3477C11.74 17.918 12.156 16.3652 12.4256 14.6777C12.4256 14.6777 4.24003 15.9609 3.66581 8.92969C10.6443 6.12305 12.6072 13.4238 12.6072 13.4238C12.701 12.4453 12.8006 10.3418 12.8006 10.2949C12.8006 10.2949 6.57206 5.97656 10.5682 0.615234C17.8689 3.13477 14.1658 10.1309 14.1658 10.1309C14.1951 10.2246 14.1951 11.5254 14.1658 12.0879C14.1658 12.0879 16.8143 6.87305 22.158 8.71875C21.9119 16.5703 13.8435 14.9531 13.8435 14.9531C13.5857 16.5586 13.1873 18.082 12.6717 19.4941C12.6717 19.4941 17.535 14.1152 22.7498 18.3223Z" fill="#5E8E56"/>
</g>
</g>
<defs>
<clipPath id="clip0_48_54">
<rect x="0.25" width="22.5" height="30" fill="white"/>
</clipPath>
</defs>
</svg>
