<svg width="39" height="25" viewBox="0 0 39 25" fill="none" xmlns="http://www.w3.org/2000/svg">
<g id="List &#226;&#134;&#146; Item &#226;&#134;&#146; Img" opacity="0.8" clip-path="url(#clip0_13_56)">
<g id="Group">
<path id="Vector" opacity="0.07" d="M35.1904 0.589844H3.19043C1.49043 0.589844 0.19043 1.88984 0.19043 3.58984V21.5898C0.19043 23.2898 1.59043 24.5898 3.19043 24.5898H35.1904C36.8904 24.5898 38.1904 23.2898 38.1904 21.5898V3.58984C38.1904 1.88984 36.7904 0.589844 35.1904 0.589844Z" fill="black"/>
<path id="Vector_2" d="M35.1904 1.58984C36.2904 1.58984 37.1904 2.48984 37.1904 3.58984V21.5898C37.1904 22.6898 36.2904 23.5898 35.1904 23.5898H3.19043C2.09043 23.5898 1.19043 22.6898 1.19043 21.5898V3.58984C1.19043 2.48984 2.09043 1.58984 3.19043 1.58984H35.1904Z" fill="#006FCF"/>
<path id="Vector_3" d="M9.16143 10.8578L9.93543 12.7338H8.39343L9.16143 10.8578ZM25.2364 10.9358H22.2594V11.7628H25.1884V13.0018H22.2654V13.9238H25.2424V14.6628L27.3194 12.4178L25.2424 10.0778L25.2364 10.9358ZM11.1734 8.59584H15.1684L16.0554 10.5308L16.8774 8.58984H27.2474L28.3254 9.77984L29.4404 8.58984H34.2034L30.6844 12.4418L34.1674 16.2698H29.3334L28.2554 15.0798L27.1304 16.2698H10.2204L9.72643 15.0798H8.59643L8.10143 16.2698H4.19043L7.47643 8.58984H10.9064L11.1734 8.59584ZM19.8364 9.67384H17.5974L16.0974 13.2098L14.4724 9.67384H12.2504V14.4838L10.1904 9.67384H8.19743L5.81543 15.1858H7.37043L7.86443 13.9958H10.4604L10.9544 15.1858H13.6744V11.2508L15.4254 15.1918H16.6154L18.3554 11.2628V15.1928H19.8134L19.8374 9.67284L19.8364 9.67384ZM29.1764 12.4418L31.7074 9.67384H29.8854L28.2844 11.3998L26.7364 9.67384H20.8424V15.1918H26.6524L28.2664 13.4538L29.8144 15.1918H31.6894L29.1764 12.4418Z" fill="white"/>
</g>
</g>
<defs>
<clipPath id="clip0_13_56">
<rect width="38" height="24" fill="white" transform="translate(0.19043 0.589844)"/>
</clipPath>
</defs>
</svg>
