<svg width="39" height="25" viewBox="0 0 39 25" fill="none" xmlns="http://www.w3.org/2000/svg">
<g id="List &#226;&#134;&#146; Item &#226;&#134;&#146; Img" opacity="0.8" clip-path="url(#clip0_13_61)">
<path id="Vector" d="M34.5779 0.589844H3.80355C3.67536 0.589844 3.54694 0.589844 3.41897 0.590523C3.31093 0.591429 3.20312 0.592562 3.09509 0.595506C2.85977 0.601848 2.6224 0.61589 2.39003 0.657564C2.15698 0.697492 1.93118 0.771918 1.72007 0.878392C1.29566 1.09425 0.9507 1.43922 0.734837 1.86362C0.628173 2.07482 0.553739 2.30079 0.51401 2.53403C0.471882 2.76664 0.458067 3.00377 0.451725 3.23887C0.448964 3.34681 0.447303 3.45478 0.446742 3.56275C0.446289 3.69049 0.446289 3.81868 0.446289 3.9471V21.2324C0.446289 21.3608 0.446289 21.4887 0.446742 21.6172C0.447422 21.725 0.44878 21.833 0.451725 21.941C0.458067 22.1757 0.472109 22.413 0.51401 22.6454C0.553657 22.8787 0.628016 23.1046 0.734611 23.3158C0.841782 23.5268 0.981673 23.7194 1.14909 23.8866C1.31622 24.0541 1.50886 24.194 1.71984 24.3011C1.93433 24.4105 2.15402 24.48 2.39025 24.5223C2.6224 24.5638 2.85977 24.5778 3.09509 24.5842C3.20312 24.5867 3.31093 24.588 3.41897 24.5887C3.54694 24.5896 3.67536 24.5896 3.80355 24.5896H34.5779C34.7058 24.5896 34.8343 24.5896 34.9622 24.5887C35.07 24.5883 35.1778 24.5867 35.2863 24.5842C35.5212 24.5778 35.7586 24.5638 35.9914 24.5223C36.2245 24.4824 36.4503 24.4078 36.6613 24.3011C37.0855 24.0849 37.4304 23.74 37.6466 23.3158C37.756 23.1013 37.8253 22.8817 37.8672 22.6454C37.9093 22.413 37.9229 22.1757 37.9292 21.941C37.9322 21.833 37.9338 21.725 37.9342 21.6172C37.9351 21.4887 37.9351 21.3608 37.9351 21.2324V3.94733C37.9351 3.81891 37.9351 3.69072 37.9342 3.56252C37.9338 3.45462 37.9321 3.34673 37.9292 3.23887C37.9229 3.00377 37.9093 2.76664 37.8672 2.53403C37.8277 2.30075 37.7534 2.07475 37.6466 1.86362C37.4306 1.43929 37.0857 1.09436 36.6613 0.878392C36.4502 0.772028 36.2244 0.69768 35.9914 0.657791C35.7586 0.61589 35.5212 0.602074 35.2863 0.595732C35.1783 0.592989 35.0703 0.591328 34.9622 0.59075C34.8343 0.589844 34.7058 0.589844 34.5779 0.589844Z" fill="black"/>
<path id="Vector_2" d="M34.5777 1.38965L34.9564 1.39033C35.0588 1.39101 35.1614 1.39214 35.2644 1.39486C35.444 1.39984 35.6538 1.40958 35.8494 1.44469C36.0193 1.47526 36.162 1.52169 36.2988 1.59145C36.5726 1.73064 36.795 1.95329 36.9339 2.22721C37.0032 2.3631 37.0494 2.50488 37.08 2.67634C37.1148 2.86976 37.1246 3.08017 37.1293 3.26068C37.1323 3.3626 37.1336 3.46452 37.1339 3.56871C37.135 3.69486 37.135 3.82079 37.135 3.94717V21.2324C37.135 21.3588 37.135 21.4847 37.1341 21.6134C37.1336 21.7153 37.1323 21.8172 37.1296 21.9191C37.1246 22.0994 37.1148 22.3098 37.0795 22.5055C37.0538 22.6612 37.0046 22.812 36.9334 22.9528C36.7942 23.2269 36.5715 23.4495 36.2974 23.5886C36.1615 23.6579 36.0193 23.7043 35.851 23.7347C35.6515 23.7702 35.4327 23.78 35.268 23.7845C35.1645 23.7868 35.0615 23.7884 34.9557 23.7888C34.83 23.7897 34.7036 23.7897 34.5777 23.7897H3.79841C3.67384 23.7897 3.54927 23.7897 3.42243 23.7888C3.3205 23.7884 3.21858 23.787 3.11667 23.7847C2.94817 23.7802 2.72938 23.7702 2.53142 23.7349C2.37491 23.7088 2.22326 23.6592 2.08161 23.5877C1.94575 23.5187 1.82174 23.4285 1.71425 23.3204C1.60642 23.2128 1.51636 23.0887 1.44744 22.9528C1.37627 22.8112 1.32694 22.6596 1.30113 22.5033C1.2658 22.3078 1.25583 22.0983 1.2513 21.9194C1.24874 21.8171 1.24723 21.7148 1.24677 21.6125L1.24609 21.3119V3.8679L1.24655 3.5678C1.24701 3.46534 1.24852 3.36289 1.25108 3.26046C1.25606 3.08107 1.2658 2.87157 1.30136 2.67453C1.32722 2.51844 1.37655 2.36717 1.44767 2.22585C1.51652 2.09041 1.60621 1.96674 1.71493 1.85826C1.82268 1.75034 1.94682 1.66014 2.08275 1.591C2.22405 1.52001 2.37522 1.47069 2.5312 1.44469C2.72711 1.40958 2.93707 1.39984 3.1169 1.39486C3.21927 1.39214 3.32187 1.39101 3.42357 1.39033L3.80339 1.38965H34.5777Z" fill="white"/>
<g id="Group">
<g id="Group_2">
<path id="Vector_3" d="M10.3001 8.69156C10.6181 8.29407 10.8337 7.76023 10.7769 7.21484C10.3116 7.23795 9.74406 7.52174 9.4152 7.91968C9.12008 8.26032 8.85894 8.81635 8.92689 9.33887C9.44917 9.38416 9.97101 9.07795 10.3001 8.69156Z" fill="black"/>
<path id="Vector_4" d="M10.7708 9.44054C10.0121 9.39524 9.36746 9.87087 9.0053 9.87087C8.64292 9.87087 8.08825 9.46319 7.48827 9.47429C6.70756 9.48561 5.98325 9.92727 5.58689 10.6294C4.77198 12.0336 5.37173 14.1173 6.16444 15.2611C6.54925 15.8273 7.0131 16.4502 7.62417 16.4278C8.20172 16.4051 8.42798 16.054 9.12965 16.054C9.83108 16.054 10.0349 16.4278 10.6462 16.4164C11.2799 16.4051 11.6763 15.8502 12.0611 15.284C12.5028 14.6385 12.6833 14.0156 12.6946 13.9817C12.6833 13.9703 11.4725 13.5058 11.4611 12.1129C11.4498 10.9465 12.4119 10.3916 12.4572 10.3574C11.9139 9.55379 11.065 9.46319 10.7706 9.44054" fill="black"/>
</g>
<g id="Group_3">
<path id="Vector_5" d="M18.3324 7.8623C19.9808 7.8623 21.1288 8.9986 21.1288 10.6529C21.1288 12.3131 19.9572 13.4552 18.2911 13.4552H16.4661V16.3579H15.1475V7.8623H18.3324ZM16.4661 12.3484H17.979C19.1273 12.3484 19.7805 11.7303 19.7805 10.6588C19.7805 9.58748 19.1271 8.97505 17.9849 8.97505H16.4661V12.3484Z" fill="black"/>
<path id="Vector_6" d="M21.4561 14.5974C21.4561 13.5082 22.2861 12.8842 23.8168 12.79L25.4593 12.6899V12.2188C25.4593 11.5303 25.0061 11.1534 24.1995 11.1534C23.5341 11.1534 23.0512 11.4947 22.9516 12.0186H21.762C21.7976 10.9178 22.8336 10.1172 24.2349 10.1172C25.7419 10.1172 26.7251 10.9061 26.7251 12.1307V16.3577H25.5066V15.3391H25.4772C25.1297 16.0043 24.3642 16.4222 23.5341 16.4222C22.3097 16.4222 21.4561 15.6925 21.4561 14.5974ZM25.4593 14.05V13.573L23.9934 13.6672C23.169 13.7202 22.7396 14.0262 22.7396 14.5618C22.7396 15.08 23.1869 15.4157 23.8874 15.4157C24.7821 15.4157 25.4593 14.8445 25.4593 14.05Z" fill="black"/>
<path id="Vector_7" d="M27.8458 18.6297V17.6114C27.9283 17.6229 28.1283 17.6347 28.2343 17.6347C28.817 17.6347 29.1468 17.3878 29.347 16.7516L29.4648 16.3749L27.2334 10.1934H28.6109L30.1653 15.2092H30.1948L31.7489 10.1934H33.0913L30.7775 16.6868C30.2475 18.1764 29.6412 18.6652 28.3579 18.6652C28.2578 18.6652 27.9339 18.6534 27.8458 18.6297Z" fill="black"/>
</g>
</g>
</g>
<defs>
<clipPath id="clip0_13_61">
<rect width="38" height="24" fill="white" transform="translate(0.19043 0.589844)"/>
</clipPath>
</defs>
</svg>
