<svg width="39" height="25" viewBox="0 0 39 25" fill="none" xmlns="http://www.w3.org/2000/svg">
<g id="List &#226;&#134;&#146; Item &#226;&#134;&#146; Img" opacity="0.8" clip-path="url(#clip0_13_72)">
<path id="Vector" opacity="0.07" d="M35.1904 0.589844H3.19043C1.49043 0.589844 0.19043 1.88984 0.19043 3.58984V21.5898C0.19043 23.2898 1.59043 24.5898 3.19043 24.5898H35.1904C36.8904 24.5898 38.1904 23.2898 38.1904 21.5898V3.58984C38.1904 1.88984 36.7904 0.589844 35.1904 0.589844Z" fill="black"/>
<path id="Vector_2" d="M35.1904 1.58984C36.2904 1.58984 37.1904 2.48984 37.1904 3.58984V21.5898C37.1904 22.6898 36.2904 23.5898 35.1904 23.5898H3.19043C2.09043 23.5898 1.19043 22.6898 1.19043 21.5898V3.58984C1.19043 2.48984 2.09043 1.58984 3.19043 1.58984H35.1904Z" fill="white"/>
<path id="Vector_3" d="M12.1909 12.5898V16.2898C12.1909 16.5898 11.9909 16.5898 11.6909 16.4898C9.7909 15.6898 8.6909 13.1898 9.3909 11.0898C9.7909 9.98984 10.5909 9.08984 11.6909 8.68984C12.0909 8.48984 12.1909 8.58984 12.1909 8.88984V12.5898ZM14.1909 12.5898V8.88984C14.1909 8.58984 14.1909 8.58984 14.4909 8.68984C16.5909 9.48984 17.6909 11.9898 16.8909 14.0898C16.4909 15.1898 15.6909 16.0898 14.5909 16.4898C14.1909 16.6898 14.1909 16.5898 14.1909 16.2898V12.5898ZM21.3909 5.58984H13.1909C16.9909 5.58984 19.9909 8.68984 19.9909 12.5898C19.9909 16.4898 16.9909 19.5898 13.1909 19.5898H21.3909C25.1909 19.5898 28.1909 16.4898 28.1909 12.5898C28.1909 8.68984 25.1909 5.58984 21.3909 5.58984Z" fill="#3086C8"/>
</g>
<defs>
<clipPath id="clip0_13_72">
<rect width="38" height="24" fill="white" transform="translate(0.19043 0.589844)"/>
</clipPath>
</defs>
</svg>
