<svg width="39" height="25" viewBox="0 0 39 25" fill="none" xmlns="http://www.w3.org/2000/svg">
<g id="List &#226;&#134;&#146; Item &#226;&#134;&#146; Img" opacity="0.8" clip-path="url(#clip0_13_121)">
<path id="Vector" opacity="0.07" d="M35.1904 0.589844H3.19043C1.49043 0.589844 0.19043 1.88984 0.19043 3.58984V21.5898C0.19043 23.2898 1.59043 24.5898 3.19043 24.5898H35.1904C36.8904 24.5898 38.1904 23.2898 38.1904 21.5898V3.58984C38.1904 1.88984 36.7904 0.589844 35.1904 0.589844Z" fill="black"/>
<path id="Vector_2" d="M35.1904 1.58984C36.2904 1.58984 37.1904 2.48984 37.1904 3.58984V21.5898C37.1904 22.6898 36.2904 23.5898 35.1904 23.5898H3.19043C2.09043 23.5898 1.19043 22.6898 1.19043 21.5898V3.58984C1.19043 2.48984 2.09043 1.58984 3.19043 1.58984H35.1904Z" fill="white"/>
<path id="Vector_3" d="M28.4904 10.6898H28.1904C27.7904 11.6898 27.4904 12.1898 27.1904 13.6898H29.0904C28.7904 12.1898 28.7904 11.4898 28.4904 10.6898ZM31.3904 16.5898H29.6904C29.5904 16.5898 29.5904 16.5898 29.4904 16.4898L29.2904 15.5898L29.1904 15.3898H26.7904C26.6904 15.3898 26.5904 15.3898 26.5904 15.5898L26.2904 16.4898C26.2904 16.5898 26.1904 16.5898 26.1904 16.5898H24.0904L24.2904 16.0898L27.1904 9.28984C27.1904 8.78984 27.4904 8.58984 27.9904 8.58984H29.4904C29.5904 8.58984 29.6904 8.58984 29.6904 8.78984L31.0904 15.2898C31.1904 15.6898 31.2904 15.9898 31.2904 16.3898C31.3904 16.4898 31.3904 16.4898 31.3904 16.5898ZM17.9904 16.2898L18.3904 14.4898C18.4904 14.4898 18.5904 14.5898 18.5904 14.5898C19.2904 14.8898 19.9904 15.0898 20.6904 14.9898C20.8904 14.9898 21.1904 14.8898 21.3904 14.7898C21.8904 14.5898 21.8904 14.0898 21.4904 13.6898C21.2904 13.4898 20.9904 13.3898 20.6904 13.1898C20.2904 12.9898 19.8904 12.7898 19.5904 12.4898C18.3904 11.4898 18.7904 10.0898 19.4904 9.38984C20.0904 8.98984 20.3904 8.58984 21.1904 8.58984C22.3904 8.58984 23.6904 8.58984 24.2904 8.78984H24.3904C24.2904 9.38984 24.1904 9.88984 23.9904 10.4898C23.4904 10.2898 22.9904 10.0898 22.4904 10.0898C22.1904 10.0898 21.8904 10.0898 21.5904 10.1898C21.3904 10.1898 21.2904 10.2898 21.1904 10.3898C20.9904 10.5898 20.9904 10.8898 21.1904 11.0898L21.6904 11.4898C22.0904 11.6898 22.4904 11.8898 22.7904 12.0898C23.2904 12.3898 23.7904 12.8898 23.8904 13.4898C24.0904 14.3898 23.7904 15.1898 22.9904 15.7898C22.4904 16.1898 22.2904 16.3898 21.5904 16.3898C20.1904 16.3898 19.0904 16.4898 18.1904 16.1898C18.0904 16.3898 18.0904 16.3898 17.9904 16.2898ZM14.4904 16.5898C14.5904 15.8898 14.5904 15.8898 14.6904 15.5898C15.1904 13.3898 15.6904 11.0898 16.0904 8.88984C16.1904 8.68984 16.1904 8.58984 16.3904 8.58984H18.1904C17.9904 9.78984 17.7904 10.6898 17.4904 11.7898C17.1904 13.2898 16.8904 14.7898 16.4904 16.2898C16.4904 16.4898 16.3904 16.4898 16.1904 16.4898M5.19043 8.78984C5.19043 8.68984 5.39043 8.58984 5.49043 8.58984H8.89043C9.39043 8.58984 9.79043 8.88984 9.89043 9.38984L10.7904 13.7898C10.7904 13.8898 10.7904 13.8898 10.8904 13.9898C10.8904 13.8898 10.9904 13.8898 10.9904 13.8898L13.0904 8.78984C12.9904 8.68984 13.0904 8.58984 13.1904 8.58984H15.2904C15.2904 8.68984 15.2904 8.68984 15.1904 8.78984L12.0904 16.0898C11.9904 16.2898 11.9904 16.3898 11.8904 16.4898C11.7904 16.5898 11.5904 16.4898 11.3904 16.4898H9.89043C9.79043 16.4898 9.69043 16.4898 9.69043 16.2898L8.09043 10.0898C7.89043 9.88984 7.59043 9.58984 7.19043 9.48984C6.59043 9.18984 5.49043 8.98984 5.29043 8.98984L5.19043 8.78984Z" fill="#142688"/>
</g>
<defs>
<clipPath id="clip0_13_121">
<rect width="38" height="24" fill="white" transform="translate(0.19043 0.589844)"/>
</clipPath>
</defs>
</svg>
