<svg width="39" height="25" viewBox="0 0 39 25" fill="none" xmlns="http://www.w3.org/2000/svg">
<g id="List &#226;&#134;&#146; Item &#226;&#134;&#146; Img" opacity="0.8" clip-path="url(#clip0_13_85)">
<path id="Vector" opacity="0.07" d="M35.1904 0.589844H3.19043C1.49043 0.589844 0.19043 1.88984 0.19043 3.58984V21.5898C0.19043 23.2898 1.59043 24.5898 3.19043 24.5898H35.1904C36.8904 24.5898 38.1904 23.2898 38.1904 21.5898V3.58984C38.1904 1.88984 36.7904 0.589844 35.1904 0.589844Z" fill="black"/>
<path id="Vector_2" d="M35.1904 1.58984C36.2904 1.58984 37.1904 2.48984 37.1904 3.58984V21.5898C37.1904 22.6898 36.2904 23.5898 35.1904 23.5898H3.19043C2.09043 23.5898 1.19043 22.6898 1.19043 21.5898V3.58984C1.19043 2.48984 2.09043 1.58984 3.19043 1.58984H35.1904Z" fill="white"/>
<path id="Vector_3" d="M5.17343 13.5758C5.17343 13.9238 5.24943 14.1898 5.34943 14.3518C5.40246 14.4437 5.47889 14.5199 5.57094 14.5726C5.66299 14.6253 5.76737 14.6526 5.87343 14.6518C6.13043 14.6518 6.36443 14.5888 6.81643 13.9638C7.17843 13.4638 7.60443 12.7598 7.89243 12.3188L8.37843 11.5718C8.71543 11.0538 9.10643 10.4768 9.55443 10.0858C9.92043 9.76684 10.3144 9.58984 10.7124 9.58984C11.3794 9.58984 12.0144 9.97584 12.5004 10.7008C13.0324 11.4948 13.2904 12.4938 13.2904 13.5258C13.2904 14.1388 13.1704 14.5898 12.9644 14.9458C12.7644 15.2908 12.3774 15.6338 11.7264 15.6338V14.6528C12.2844 14.6528 12.4234 14.1398 12.4234 13.5528C12.4234 12.7168 12.2284 11.7888 11.7994 11.1258C11.4944 10.6558 11.0994 10.3688 10.6654 10.3688C10.1954 10.3688 9.81743 10.7228 9.39143 11.3548C9.16543 11.6908 8.93443 12.0998 8.67343 12.5618L8.38643 13.0698C7.81043 14.0898 7.66443 14.3238 7.37643 14.7068C6.87243 15.3788 6.44143 15.6338 5.87443 15.6338C5.20043 15.6338 4.77443 15.3428 4.51143 14.9038C4.29643 14.5458 4.19043 14.0758 4.19043 13.5398L5.17343 13.5748V13.5758Z" fill="#0081FB"/>
<path id="Vector_4" d="M4.96582 10.7698C5.41582 10.0758 6.06582 9.58984 6.81282 9.58984C7.24482 9.58984 7.67382 9.71784 8.12282 10.0838C8.61282 10.4838 9.13582 11.1438 9.78782 12.2298L10.0218 12.6198C10.5868 13.5598 10.9078 14.0438 11.0958 14.2718C11.3378 14.5648 11.5068 14.6518 11.7268 14.6518C12.2848 14.6518 12.4238 14.1398 12.4238 13.5528L13.2908 13.5258C13.2908 14.1388 13.1708 14.5898 12.9648 14.9458C12.7648 15.2908 12.3778 15.6338 11.7268 15.6338C11.3218 15.6338 10.9628 15.5458 10.5668 15.1718C10.2608 14.8848 9.90382 14.3738 9.62982 13.9148L8.81382 12.5518C8.40382 11.8678 8.02882 11.3578 7.81082 11.1268C7.57682 10.8778 7.27682 10.5778 6.79682 10.5778C6.40882 10.5778 6.07882 10.8508 5.80282 11.2678L4.96582 10.7698Z" fill="url(#paint0_linear_13_85)"/>
<path id="Vector_5" d="M6.79643 10.5778C6.40843 10.5778 6.07843 10.8508 5.80243 11.2678C5.41243 11.8558 5.17343 12.7338 5.17343 13.5758C5.17343 13.9238 5.24943 14.1898 5.34943 14.3518L4.51143 14.9038C4.29643 14.5458 4.19043 14.0758 4.19043 13.5398C4.19043 12.5668 4.45743 11.5528 4.96543 10.7698C5.41543 10.0748 6.06543 9.58984 6.81243 9.58984L6.79643 10.5778Z" fill="url(#paint1_linear_13_85)"/>
<path id="Vector_6" d="M15.2002 9.78125H16.3382L18.2712 13.2793L20.2052 9.78125H21.3172V15.5282H20.3892V11.1233L18.6942 14.1733H17.8242L16.1282 11.1233V15.5282H15.2012L15.2002 9.78125ZM24.2232 11.9242C23.5582 11.9242 23.1572 12.4243 23.0612 13.0443H25.3192C25.2732 12.4063 24.9042 11.9242 24.2232 11.9242ZM22.1422 13.3982C22.1422 12.0932 22.9852 11.1442 24.2392 11.1442C25.4732 11.1442 26.2102 12.0812 26.2102 13.4672V13.7222H23.0622C23.1732 14.3962 23.6212 14.8512 24.3422 14.8512C24.9182 14.8512 25.2782 14.6753 25.6192 14.3542L26.1122 14.9572C25.6472 15.3842 25.0572 15.6313 24.3092 15.6313C22.9512 15.6313 22.1422 14.6412 22.1422 13.3982ZM27.3352 12.0063H26.4812V11.2463H27.3352V9.99225H28.2302V11.2483H29.5272V12.0083H28.2302V13.9323C28.2302 14.5893 28.4402 14.8223 28.9562 14.8223C29.1922 14.8223 29.3272 14.8022 29.5262 14.7692V15.5212C29.2782 15.5912 29.0412 15.6233 28.7842 15.6233C27.8182 15.6233 27.3342 15.0953 27.3342 14.0393V12.0072L27.3352 12.0063ZM33.2952 12.7452C33.2074 12.5078 33.0473 12.304 32.8373 12.1625C32.6273 12.0211 32.3782 11.9493 32.1252 11.9572C31.3592 11.9572 30.8692 12.5003 30.8692 13.3853C30.8692 14.2483 31.3202 14.8182 32.0892 14.8182C32.6922 14.8182 33.1232 14.4672 33.2952 14.0302V12.7452ZM34.1902 15.5282H33.3122V14.9283C33.0662 15.2813 32.6192 15.6313 31.8952 15.6313C30.7312 15.6313 29.9542 14.6562 29.9542 13.3853C29.9542 12.1023 30.7502 11.1442 31.9442 11.1442C32.5352 11.1442 32.9992 11.3802 33.3122 11.7972V11.2472H34.1902V15.5282Z" fill="black"/>
</g>
<defs>
<linearGradient id="paint0_linear_13_85" x1="6.12082" y1="13.2928" x2="12.3868" y2="13.6088" gradientUnits="userSpaceOnUse">
<stop stop-color="#0064E1"/>
<stop offset="0.4" stop-color="#0064E1"/>
<stop offset="0.83" stop-color="#0073EE"/>
<stop offset="1" stop-color="#0082FB"/>
</linearGradient>
<linearGradient id="paint1_linear_13_85" x1="5.61443" y1="13.9888" x2="5.61443" y2="11.6788" gradientUnits="userSpaceOnUse">
<stop stop-color="#0082FB"/>
<stop offset="1" stop-color="#0064E0"/>
</linearGradient>
<clipPath id="clip0_13_85">
<rect width="38" height="24" fill="white" transform="translate(0.19043 0.589844)"/>
</clipPath>
</defs>
</svg>
