<svg width="39" height="25" viewBox="0 0 39 25" fill="none" xmlns="http://www.w3.org/2000/svg">
<g id="List &#226;&#134;&#146; Item &#226;&#134;&#146; Img" opacity="0.8" clip-path="url(#clip0_13_92)">
<path id="Vector" opacity="0.07" d="M35.1904 0.589844H3.19043C1.49043 0.589844 0.19043 1.88984 0.19043 3.58984V21.5898C0.19043 23.2898 1.59043 24.5898 3.19043 24.5898H35.1904C36.8904 24.5898 38.1904 23.2898 38.1904 21.5898V3.58984C38.1904 1.88984 36.7904 0.589844 35.1904 0.589844Z" fill="black"/>
<path id="Vector_2" d="M35.1904 1.58984C36.2904 1.58984 37.1904 2.48984 37.1904 3.58984V21.5898C37.1904 22.6898 36.2904 23.5898 35.1904 23.5898H3.19043C2.09043 23.5898 1.19043 22.6898 1.19043 21.5898V3.58984C1.19043 2.48984 2.09043 1.58984 3.19043 1.58984H35.1904Z" fill="white"/>
<path id="Vector_3" d="M18.2836 12.5656V15.7656H17.2656V7.86558H19.9566C20.2791 7.86013 20.5994 7.91845 20.8992 8.03721C21.199 8.15597 21.4724 8.33282 21.7036 8.55758C21.9227 8.76198 22.0993 9.00754 22.2233 9.28022C22.3474 9.55291 22.4166 9.84737 22.4268 10.1468C22.437 10.4462 22.3881 10.7447 22.2829 11.0252C22.1777 11.3057 22.0182 11.5627 21.8136 11.7816L21.7036 11.8976C21.2336 12.3446 20.6056 12.5876 19.9566 12.5716L18.2836 12.5656ZM18.2836 8.83359V11.6216H19.9816C20.3586 11.6336 20.7226 11.4866 20.9866 11.2176C21.1755 11.0208 21.3023 10.7727 21.3513 10.5044C21.4002 10.2361 21.3693 9.95927 21.2622 9.70841C21.1551 9.45755 20.9766 9.24372 20.7489 9.09351C20.5212 8.9433 20.2544 8.86334 19.9816 8.86359L18.2836 8.83359ZM24.7676 10.1816C25.4176 10.1516 26.0536 10.3696 26.5456 10.7946C26.9906 11.2246 27.2276 11.8246 27.1956 12.4436V15.7776H26.2266V15.0116H26.1776C26.0038 15.2989 25.7581 15.5359 25.4647 15.6992C25.1713 15.8624 24.8404 15.9463 24.5046 15.9426C23.9565 15.9603 23.422 15.7699 23.0086 15.4096C22.8128 15.2498 22.6558 15.0476 22.5496 14.8182C22.4434 14.5888 22.3907 14.3383 22.3956 14.0856C22.3841 13.8302 22.4337 13.5757 22.5403 13.3433C22.6469 13.111 22.8075 12.9074 23.0086 12.7496C23.502 12.3947 24.0992 12.2136 24.7066 12.2346C25.2236 12.2146 25.7366 12.3276 26.1966 12.5656V12.3576C26.2 12.1856 26.1642 12.0151 26.092 11.859C26.0197 11.7029 25.9129 11.5653 25.7796 11.4566C25.512 11.2132 25.1613 11.0816 24.7996 11.0886C24.5369 11.0861 24.278 11.1506 24.0472 11.2761C23.8164 11.4016 23.6214 11.5838 23.4806 11.8056L22.5856 11.2416C22.8286 10.8934 23.1567 10.6132 23.5387 10.4276C23.9206 10.2421 24.3437 10.1574 24.7676 10.1816ZM23.4806 14.1096C23.4782 14.2391 23.5077 14.3672 23.5665 14.4827C23.6252 14.5981 23.7115 14.6973 23.8176 14.7716C24.0406 14.9476 24.3176 15.0406 24.6026 15.0346C25.0316 15.0336 25.4426 14.8646 25.7486 14.5626C26.0536 14.2766 26.2266 13.8776 26.2266 13.4596C25.8417 13.1859 25.3739 13.0538 24.9026 13.0856C24.5367 13.0712 24.1758 13.1742 23.8726 13.3796C23.7526 13.4599 23.654 13.5685 23.5857 13.6957C23.5173 13.823 23.4813 13.9651 23.4806 14.1096ZM32.7666 10.3596L29.3766 18.1496H28.3286L29.6096 15.4216L27.3856 10.3596H28.4886L30.1006 14.2446L31.6696 10.3596H32.7666Z" fill="#5F6368"/>
<path id="Vector_4" d="M14.1765 11.8741C14.1765 11.5661 14.1525 11.2581 14.1035 10.9541H9.81348V12.7011H12.2645C12.2146 12.9787 12.1091 13.2435 11.9545 13.4794C11.7998 13.7153 11.5992 13.9176 11.3645 14.0741V15.2081H12.8285C13.2736 14.7774 13.6236 14.2582 13.8557 13.6839C14.0879 13.1097 14.1972 12.4932 14.1765 11.8741Z" fill="#4285F4"/>
<path id="Vector_5" d="M9.81958 16.3108C10.9259 16.3412 12.0022 15.9489 12.8296 15.2138L11.3636 14.0738C11.0113 14.2996 10.6122 14.4422 10.1966 14.4906C9.78098 14.539 9.35979 14.492 8.96506 14.3532C8.57033 14.2143 8.21247 13.9873 7.91867 13.6894C7.62487 13.3914 7.40288 13.0304 7.26958 12.6338H5.76758V13.8038C6.14343 14.5568 6.72163 15.1903 7.43733 15.6331C8.15304 16.0759 8.97796 16.3106 9.81958 16.3108Z" fill="#34A853"/>
<path id="Vector_6" d="M7.26936 12.6394C7.07915 12.0767 7.07915 11.4671 7.26936 10.9044V9.73438H5.76736C5.44715 10.3658 5.28027 11.0639 5.28027 11.7719C5.28027 12.4799 5.44715 13.1779 5.76736 13.8094L7.26936 12.6394Z" fill="#FBBC04"/>
<path id="Vector_7" d="M9.81958 9.03003C10.4666 9.01821 11.092 9.26264 11.5596 9.71003L12.8596 8.41703C12.0307 7.63904 10.9312 7.21469 9.79458 7.23403C8.95795 7.23823 8.13882 7.47404 7.42801 7.91531C6.7172 8.35659 6.14249 8.98609 5.76758 9.73403L7.26958 10.905C7.4452 10.3651 7.78567 9.89384 8.24309 9.5575C8.7005 9.22117 9.25185 9.03669 9.81958 9.03003Z" fill="#EA4335"/>
</g>
<defs>
<clipPath id="clip0_13_92">
<rect width="38" height="24" fill="white" transform="translate(0.19043 0.589844)"/>
</clipPath>
</defs>
</svg>
