<svg width="39" height="25" viewBox="0 0 39 25" fill="none" xmlns="http://www.w3.org/2000/svg">
<g id="List &#226;&#134;&#146; Item &#226;&#134;&#146; Img" opacity="0.8" clip-path="url(#clip0_13_100)">
<path id="Vector" opacity="0.07" d="M35.1904 0.589844H3.19043C1.49043 0.589844 0.19043 1.88984 0.19043 3.58984V21.5898C0.19043 23.2898 1.59043 24.5898 3.19043 24.5898H35.1904C36.8904 24.5898 38.1904 23.2898 38.1904 21.5898V3.58984C38.1904 1.88984 36.7904 0.589844 35.1904 0.589844Z" fill="black"/>
<path id="Vector_2" d="M35.1904 1.58984C36.2904 1.58984 37.1904 2.48984 37.1904 3.58984V21.5898C37.1904 22.6898 36.2904 23.5898 35.1904 23.5898H3.19043C2.09043 23.5898 1.19043 22.6898 1.19043 21.5898V3.58984C1.19043 2.48984 2.09043 1.58984 3.19043 1.58984H35.1904Z" fill="white"/>
<path id="Vector_3" d="M15.1904 19.5898C19.0564 19.5898 22.1904 16.4558 22.1904 12.5898C22.1904 8.72385 19.0564 5.58984 15.1904 5.58984C11.3244 5.58984 8.19043 8.72385 8.19043 12.5898C8.19043 16.4558 11.3244 19.5898 15.1904 19.5898Z" fill="#EB001B"/>
<path id="Vector_4" d="M23.1904 19.5898C27.0564 19.5898 30.1904 16.4558 30.1904 12.5898C30.1904 8.72385 27.0564 5.58984 23.1904 5.58984C19.3244 5.58984 16.1904 8.72385 16.1904 12.5898C16.1904 16.4558 19.3244 19.5898 23.1904 19.5898Z" fill="#F79E1B"/>
<path id="Vector_5" d="M22.1904 12.5896C22.1904 10.1896 20.9904 8.08965 19.1904 6.88965C17.3904 8.18965 16.1904 10.2896 16.1904 12.5896C16.1904 14.8896 17.3904 17.0896 19.1904 18.2896C20.9904 17.0896 22.1904 14.9896 22.1904 12.5896Z" fill="#FF5F00"/>
</g>
<defs>
<clipPath id="clip0_13_100">
<rect width="38" height="24" fill="white" transform="translate(0.19043 0.589844)"/>
</clipPath>
</defs>
</svg>
