<svg width="39" height="25" viewBox="0 0 39 25" fill="none" xmlns="http://www.w3.org/2000/svg">
<g id="List &#226;&#134;&#146; Item &#226;&#134;&#146; Img" opacity="0.8" clip-path="url(#clip0_13_106)">
<path id="Vector" opacity="0.07" d="M35.1904 0.589844H3.19043C1.49043 0.589844 0.19043 1.88984 0.19043 3.58984V21.5898C0.19043 23.2898 1.59043 24.5898 3.19043 24.5898H35.1904C36.8904 24.5898 38.1904 23.2898 38.1904 21.5898V3.58984C38.1904 1.88984 36.7904 0.589844 35.1904 0.589844Z" fill="black"/>
<path id="Vector_2" d="M35.1904 1.58984C36.2904 1.58984 37.1904 2.48984 37.1904 3.58984V21.5898C37.1904 22.6898 36.2904 23.5898 35.1904 23.5898H3.19043C2.09043 23.5898 1.19043 22.6898 1.19043 21.5898V3.58984C1.19043 2.48984 2.09043 1.58984 3.19043 1.58984H35.1904Z" fill="white"/>
<path id="Vector_3" d="M24.0904 8.88984C24.2904 7.88984 24.0904 7.18984 23.4904 6.58984C22.8904 5.88984 21.7904 5.58984 20.3904 5.58984H16.2904C15.9904 5.58984 15.7904 5.78984 15.6904 6.08984L14.1904 16.1898C14.1904 16.3898 14.2904 16.5898 14.4904 16.5898H17.1904L17.5904 13.1898L19.3904 10.9898L24.0904 8.88984Z" fill="#003087"/>
<path id="Vector_4" d="M24.09 8.88965L23.89 9.08965C23.39 11.8896 21.69 12.8896 19.29 12.8896H18.19C17.89 12.8896 17.69 13.0896 17.59 13.3896L16.99 17.2896L16.79 18.2896C16.79 18.4896 16.89 18.6896 17.09 18.6896H19.19C19.49 18.6896 19.69 18.4896 19.69 18.2896V18.1896L20.09 15.7896V15.6896C20.09 15.4896 20.39 15.2896 20.59 15.2896H20.89C22.99 15.2896 24.59 14.4896 24.99 12.0896C25.19 11.0896 25.09 10.2896 24.59 9.68965C24.49 9.18965 24.29 8.98965 24.09 8.88965Z" fill="#3086C8"/>
<path id="Vector_5" d="M23.4908 8.68965C23.3908 8.58965 23.2908 8.58965 23.1908 8.58965C23.0908 8.58965 22.9908 8.58965 22.8908 8.48965C22.5908 8.38965 22.1908 8.38965 21.7908 8.38965H18.7908C18.6908 8.38965 18.5908 8.38965 18.5908 8.48965C18.3908 8.58965 18.2908 8.68965 18.2908 8.88965L17.5908 13.2896V13.3896C17.5908 13.0896 17.8908 12.8896 18.1908 12.8896H19.4908C21.9908 12.8896 23.5908 11.8896 24.0908 9.08965V8.88965C23.9908 8.78965 23.7908 8.68965 23.5908 8.68965H23.4908Z" fill="#012169"/>
</g>
<defs>
<clipPath id="clip0_13_106">
<rect width="38" height="24" fill="white" transform="translate(0.19043 0.589844)"/>
</clipPath>
</defs>
</svg>
