<svg width="26" height="31" viewBox="0 0 26 31" fill="none" xmlns="http://www.w3.org/2000/svg">
<g id="paypal logo" clip-path="url(#clip0_35_113)">
<path id="Vector" d="M7.26555 29.1544L7.78855 25.8324L6.62355 25.8054H1.06055L4.92655 1.29241C4.93855 1.21841 4.97755 1.14941 5.03455 1.10041C5.09155 1.05141 5.16455 1.02441 5.24055 1.02441H14.6205C17.7345 1.02441 19.8835 1.67241 21.0055 2.95141C21.5315 3.55141 21.8665 4.17841 22.0285 4.86841C22.1985 5.59241 22.2015 6.45741 22.0355 7.51241L22.0235 7.58941V8.26541L22.5495 8.56341C22.9925 8.79841 23.3445 9.06741 23.6145 9.37541C24.0645 9.88841 24.3555 10.5404 24.4785 11.3134C24.6055 12.1084 24.5635 13.0544 24.3555 14.1254C24.1155 15.3574 23.7275 16.4304 23.2035 17.3084C22.7215 18.1174 22.1075 18.7884 21.3785 19.3084C20.6825 19.8024 19.8555 20.1774 18.9205 20.4174C18.0145 20.6534 16.9815 20.7724 15.8485 20.7724H15.1185C14.5965 20.7724 14.0895 20.9604 13.6915 21.2974C13.2925 21.6414 13.0285 22.1114 12.9475 22.6254L12.8925 22.9244L11.9685 28.7794L11.9265 28.9944C11.9155 29.0624 11.8965 29.0964 11.8685 29.1194C11.8435 29.1404 11.8075 29.1544 11.7725 29.1544H7.26555Z" fill="#253B80"/>
<path id="Vector_2" d="M23.0472 7.66699C23.0192 7.84599 22.9872 8.02899 22.9512 8.21699C21.7142 14.568 17.4822 16.762 12.0772 16.762H9.32517C8.66417 16.762 8.10717 17.242 8.00417 17.894L6.59517 26.83L6.19617 29.363C6.12917 29.791 6.45917 30.177 6.89117 30.177H11.7722C12.3502 30.177 12.8412 29.757 12.9322 29.187L12.9802 28.939L13.8992 23.107L13.9582 22.787C14.0482 22.215 14.5402 21.795 15.1182 21.795H15.8482C20.5772 21.795 24.2792 19.875 25.3612 14.319C25.8132 11.998 25.5792 10.06 24.3832 8.69699C24.0212 8.28599 23.5722 7.94499 23.0472 7.66699Z" fill="#179BD7"/>
<path id="Vector_3" d="M21.7549 7.15103C21.5659 7.09603 21.3709 7.04603 21.1709 7.00103C20.9699 6.95703 20.7639 6.91803 20.5519 6.88403C19.8099 6.76403 18.9969 6.70703 18.1259 6.70703H10.7739C10.5929 6.70703 10.4209 6.74803 10.2669 6.82203C9.92786 6.98503 9.67586 7.30603 9.61486 7.69903L8.05086 17.605L8.00586 17.894C8.10886 17.242 8.66586 16.762 9.32686 16.762H12.0789C17.4839 16.762 21.7159 14.567 22.9529 8.21703C22.9899 8.02903 23.0209 7.84603 23.0489 7.66703C22.7359 7.50103 22.3969 7.35903 22.0319 7.23803C21.9419 7.20803 21.8489 7.17903 21.7549 7.15103Z" fill="#222D65"/>
<path id="Vector_4" d="M9.61399 7.699C9.67499 7.306 9.92699 6.985 10.266 6.823C10.421 6.749 10.592 6.708 10.773 6.708H18.125C18.996 6.708 19.809 6.765 20.551 6.885C20.763 6.919 20.969 6.958 21.17 7.002C21.37 7.047 21.565 7.097 21.754 7.152C21.848 7.18 21.941 7.209 22.032 7.238C22.397 7.359 22.736 7.502 23.049 7.667C23.417 5.32 23.046 3.722 21.777 2.275C20.378 0.682 17.853 0 14.622 0H5.24199C4.58199 0 4.01899 0.48 3.91699 1.133L0.00998882 25.898C-0.0670112 26.388 0.310989 26.83 0.804989 26.83H6.59599L8.04999 17.605L9.61399 7.699Z" fill="#253B80"/>
</g>
<defs>
<clipPath id="clip0_35_113">
<rect width="26" height="31" fill="white"/>
</clipPath>
</defs>
</svg>
