<svg width="63" height="50" viewBox="0 0 63 50" fill="none" xmlns="http://www.w3.org/2000/svg">
<g id="gamepad-solid 1" clip-path="url(#clip0_24_281)">
<path id="Vector" d="M18.75 6.25C8.39844 6.25 0 14.6484 0 25C0 35.3516 8.39844 43.75 18.75 43.75H43.75C54.1016 43.75 62.5 35.3516 62.5 25C62.5 14.6484 54.1016 6.25 43.75 6.25H18.75ZM48.4375 16.4062C49.4735 16.4062 50.4671 16.8178 51.1996 17.5504C51.9322 18.2829 52.3438 19.2765 52.3438 20.3125C52.3438 21.3485 51.9322 22.3421 51.1996 23.0746C50.4671 23.8072 49.4735 24.2188 48.4375 24.2188C47.4015 24.2188 46.4079 23.8072 45.6754 23.0746C44.9428 22.3421 44.5312 21.3485 44.5312 20.3125C44.5312 19.2765 44.9428 18.2829 45.6754 17.5504C46.4079 16.8178 47.4015 16.4062 48.4375 16.4062ZM38.2812 29.6875C38.2812 28.6515 38.6928 27.6579 39.4254 26.9254C40.1579 26.1928 41.1515 25.7812 42.1875 25.7812C43.2235 25.7812 44.2171 26.1928 44.9496 26.9254C45.6822 27.6579 46.0938 28.6515 46.0938 29.6875C46.0938 30.7235 45.6822 31.7171 44.9496 32.4496C44.2171 33.1822 43.2235 33.5938 42.1875 33.5938C41.1515 33.5938 40.1579 33.1822 39.4254 32.4496C38.6928 31.7171 38.2812 30.7235 38.2812 29.6875ZM16.4062 19.5312C16.4062 18.2324 17.4512 17.1875 18.75 17.1875C20.0488 17.1875 21.0938 18.2324 21.0938 19.5312V22.6562H24.2188C25.5176 22.6562 26.5625 23.7012 26.5625 25C26.5625 26.2988 25.5176 27.3438 24.2188 27.3438H21.0938V30.4688C21.0938 31.7676 20.0488 32.8125 18.75 32.8125C17.4512 32.8125 16.4062 31.7676 16.4062 30.4688V27.3438H13.2812C11.9824 27.3438 10.9375 26.2988 10.9375 25C10.9375 23.7012 11.9824 22.6562 13.2812 22.6562H16.4062V19.5312Z" fill="#FF5F00"/>
</g>
<defs>
<clipPath id="clip0_24_281">
<rect width="62.5" height="50" fill="white"/>
</clipPath>
</defs>
</svg>
