<svg width="50" height="50" viewBox="0 0 50 50" fill="none" xmlns="http://www.w3.org/2000/svg">
<g id="seedling-solid 1" clip-path="url(#clip0_24_279)">
<path id="Vector" d="M50 3.125C50 14.2188 41.7383 23.3887 31.0352 24.8047C30.3418 19.5898 28.0469 14.8828 24.6582 11.2012C28.3984 4.52148 35.5469 0 43.75 0H46.875C48.6035 0 50 1.39648 50 3.125ZM0 9.375C0 7.64648 1.39648 6.25 3.125 6.25H6.25C18.3301 6.25 28.125 16.0449 28.125 28.125V31.25V46.875C28.125 48.6035 26.7285 50 25 50C23.2715 50 21.875 48.6035 21.875 46.875V31.25C9.79492 31.25 0 21.4551 0 9.375Z" fill="#5E8E56"/>
</g>
<defs>
<clipPath id="clip0_24_279">
<rect width="50" height="50" fill="white"/>
</clipPath>
</defs>
</svg>
